<svg width="485" height="500" viewBox="0 0 485 500" fill="none" xmlns="http://www.w3.org/2000/svg">
<g clip-path="url(#clip0_308_1410)">
<g clip-path="url(#clip1_308_1410)">
<path fill-rule="evenodd" clip-rule="evenodd" d="M482.969 299.405C480.063 290.601 472.447 284.468 462.598 282.996C457.954 282.303 452.636 282.598 446.343 283.896C435.374 286.159 427.235 287.02 421.296 287.188C443.713 249.337 461.943 206.174 472.437 165.543C489.406 99.8451 480.338 69.9156 469.742 56.3767C441.699 20.545 400.785 1.29438 351.423 0.704272C325.094 0.382906 301.976 5.58187 289.919 9.31957C278.691 7.33987 266.618 6.23356 253.951 6.02865C230.209 5.65017 209.229 10.8256 191.303 21.4632C181.377 18.1084 165.451 13.3775 147.057 10.3576C103.794 3.25505 68.9278 8.78993 43.4245 26.8066C12.542 48.6214 -1.77498 86.5225 0.873206 139.458C1.71301 156.266 11.1155 207.401 25.9185 255.898C34.4263 283.772 43.4984 306.92 52.883 324.704C66.1911 349.922 80.4309 364.773 96.4175 370.105C105.379 373.091 121.659 375.181 138.783 360.922C140.953 363.549 143.848 366.161 147.692 368.587C152.571 371.665 158.54 374.18 164.499 375.67C185.979 381.04 206.098 379.697 223.263 372.171C223.368 375.223 223.45 378.14 223.519 380.659C223.634 384.745 223.746 388.75 223.896 392.495C224.912 417.826 226.636 437.521 231.742 451.301C232.022 452.06 232.399 453.215 232.798 454.438C235.344 462.239 239.605 475.295 250.44 485.521C261.663 496.113 275.237 499.363 287.668 499.361C293.903 499.361 299.852 498.544 305.069 497.425C323.669 493.44 344.792 487.367 360.072 465.61C374.518 445.042 381.541 414.063 382.812 365.249C382.976 363.869 383.129 362.551 383.275 361.295C383.374 360.447 383.475 359.581 383.577 358.716L386.981 359.015L387.857 359.074C406.801 359.938 429.964 355.92 444.189 349.313C455.43 344.096 491.45 325.08 482.969 299.405" fill="#336791"/>
<path fill-rule="evenodd" clip-rule="evenodd" d="M450.579 304.399C394.254 316.017 390.382 296.947 390.382 296.947C449.852 208.702 474.713 96.6886 453.258 69.274C394.73 -5.50803 293.413 29.859 291.722 30.7772L291.178 30.8746C280.05 28.5646 267.596 27.1885 253.599 26.96C228.113 26.5424 208.781 33.6415 194.111 44.7662C194.111 44.7662 13.3721 -29.6911 21.778 138.41C23.5663 174.173 73.0354 409.004 132.04 338.074C153.606 312.137 174.444 290.207 174.444 290.207C184.793 297.082 197.183 300.589 210.172 299.33L211.181 298.473C210.868 301.693 211.011 304.843 211.586 308.572C196.385 325.555 200.852 328.537 170.465 334.792C139.718 341.128 157.781 352.41 169.574 355.358C183.871 358.933 216.947 363.998 239.296 332.712L238.405 336.282C244.36 341.052 248.543 367.311 247.842 391.115C247.141 414.919 246.673 431.262 251.366 444.027C256.058 456.792 260.736 485.514 300.681 476.954C334.06 469.801 351.356 451.265 353.763 420.346C355.47 398.364 359.334 401.614 359.579 381.961L362.678 372.657C366.252 342.86 363.246 333.247 383.81 337.718L388.807 338.157C403.943 338.845 423.752 335.722 435.378 330.318C460.414 318.7 475.261 299.302 450.577 304.399H450.579Z" fill="#336791"/>
<path fill-rule="evenodd" clip-rule="evenodd" d="M204.69 154.403C199.616 153.697 195.018 154.351 192.692 156.111C191.383 157.102 190.979 158.25 190.87 159.04C190.578 161.133 192.045 163.447 192.945 164.64C195.494 168.018 199.218 170.341 202.904 170.853C203.438 170.926 203.969 170.962 204.498 170.962C210.645 170.962 216.233 166.176 216.725 162.644C217.341 158.22 210.918 155.27 204.69 154.403Z" fill="white"/>
<path fill-rule="evenodd" clip-rule="evenodd" d="M372.842 154.543H372.841C372.357 151.076 366.185 150.087 360.329 150.901C354.481 151.716 348.81 154.355 349.284 157.831C349.664 160.534 354.543 165.149 360.321 165.147C360.808 165.147 361.301 165.115 361.797 165.046C365.653 164.511 368.483 162.063 369.826 160.651C371.874 158.501 373.058 156.102 372.842 154.543Z" fill="white"/>
<path fill-rule="evenodd" clip-rule="evenodd" d="M469.322 303.078C467.174 296.584 460.262 294.493 448.777 296.866C414.676 303.904 402.465 299.028 398.454 296.076C424.96 255.695 446.765 206.887 458.528 161.346C464.101 139.774 467.179 119.741 467.43 103.413C467.707 85.4878 464.656 72.3185 458.36 64.2732C432.976 31.8387 395.724 14.4413 350.628 13.9631C319.627 13.6149 293.434 21.5494 288.356 23.7799C277.663 21.1205 266.005 19.488 253.315 19.2797C230.041 18.9034 209.925 24.4753 193.269 35.8317C186.034 33.1399 167.337 26.7215 144.473 23.0387C104.941 16.6729 73.529 21.4956 51.1118 37.377C24.3633 56.3275 12.0148 90.2019 14.4077 138.057C15.2128 154.159 24.3857 203.689 38.864 251.123C57.9209 313.555 78.635 348.898 100.432 356.168C102.983 357.019 105.925 357.614 109.168 357.614C117.119 357.614 126.867 354.03 137.009 341.837C153.856 321.57 169.585 304.587 175.383 298.416C183.951 303.016 193.363 305.583 202.991 305.841C203.008 306.093 203.034 306.345 203.056 306.596C201.125 308.887 199.54 310.894 198.19 312.609C191.52 321.076 190.131 322.839 168.659 327.26C162.552 328.52 146.328 331.864 146.092 343.235C145.833 355.658 165.266 360.876 167.481 361.429C175.197 363.361 182.63 364.314 189.719 364.314C206.961 364.313 222.132 358.647 234.258 347.683C233.884 391.975 235.732 435.619 241.049 448.917C245.404 459.802 256.045 486.407 289.656 486.405C294.586 486.405 300.016 485.832 305.988 484.552C341.065 477.03 356.296 461.528 362.19 427.349C365.343 409.082 370.755 365.461 373.299 342.064C378.67 343.74 385.586 344.507 393.061 344.506C408.652 344.506 426.642 341.193 437.925 335.956C450.598 330.071 473.47 315.626 469.322 303.078ZM385.788 144.971C385.672 151.878 384.721 158.149 383.713 164.695C382.629 171.735 381.507 179.013 381.225 187.849C380.946 196.448 382.02 205.388 383.059 214.032C385.158 231.493 387.311 249.471 378.975 267.21C377.679 264.909 376.428 262.398 375.282 259.618C374.246 257.106 371.996 253.072 368.882 247.488C356.762 225.753 328.381 174.857 342.91 154.088C347.237 147.904 358.219 141.55 385.788 144.971ZM352.372 27.951C392.777 28.8434 424.737 43.9588 447.367 72.875C464.723 95.0549 445.612 195.977 390.284 283.043C389.738 282.349 389.181 281.648 388.605 280.929C388.376 280.641 388.142 280.349 387.906 280.053C402.203 256.441 399.407 233.08 396.918 212.367C395.896 203.867 394.931 195.838 395.176 188.298C395.43 180.303 396.487 173.449 397.509 166.82C398.766 158.651 400.044 150.199 399.691 140.234C399.954 139.19 400.06 137.954 399.923 136.489C399.022 126.933 388.114 98.338 365.878 72.4529C353.717 58.2971 335.979 42.4539 311.761 31.7682C322.178 29.6093 336.423 27.596 352.372 27.951ZM126.277 332.913C115.103 346.348 107.386 343.773 104.848 342.928C88.313 337.412 69.1284 302.466 52.2136 247.049C37.5774 199.098 29.0237 150.881 28.3474 137.36C26.2098 94.5992 36.5753 64.7972 59.1571 48.7826C95.907 22.7206 156.328 38.3198 180.607 46.2319C180.257 46.5756 179.894 46.8981 179.548 47.2475C139.709 87.4832 140.654 156.226 140.752 160.428C140.748 162.049 140.884 164.345 141.071 167.502C141.756 179.064 143.031 200.583 139.624 224.953C136.456 247.599 143.437 269.764 158.773 285.765C160.361 287.421 162.018 288.976 163.73 290.44C156.903 297.751 142.067 313.916 126.277 332.913ZM168.85 276.107C156.49 263.211 150.876 245.272 153.447 226.886C157.046 201.142 155.717 178.721 155.004 166.676C154.904 164.991 154.816 163.514 154.763 162.348C160.583 157.188 187.555 142.736 206.788 147.143C215.567 149.154 220.914 155.13 223.138 165.412C234.646 218.636 224.662 240.821 216.639 258.647C214.985 262.32 213.423 265.791 212.088 269.383L211.055 272.159C208.437 279.179 206.001 285.704 204.492 291.902C191.353 291.862 178.57 286.25 168.85 276.107ZM170.867 347.888C167.031 346.93 163.58 345.265 161.555 343.884C163.246 343.088 166.256 342.006 171.475 340.931C196.735 335.73 200.635 332.061 209.154 321.244C211.108 318.765 213.322 315.953 216.388 312.529C216.389 312.527 216.39 312.526 216.391 312.525C220.959 307.412 223.047 308.278 226.835 309.849C229.906 311.12 232.895 314.968 234.108 319.203C234.681 321.203 235.326 325 233.218 327.952C215.422 352.869 189.491 352.549 170.867 347.888ZM303.062 470.904C272.16 477.525 261.219 461.758 254.009 443.734C249.355 432.096 247.069 379.622 248.691 321.674C248.713 320.902 248.603 320.158 248.39 319.458C248.205 318.106 247.921 316.739 247.527 315.363C245.113 306.931 239.233 299.878 232.179 296.955C229.376 295.793 224.231 293.662 218.049 295.244C219.368 289.812 221.654 283.679 224.132 277.037L225.172 274.242C226.344 271.092 227.812 267.829 229.366 264.376C237.762 245.723 249.26 220.176 236.781 162.461C232.106 140.845 216.497 130.289 192.833 132.74C178.646 134.208 165.668 139.932 159.195 143.214C157.803 143.919 156.53 144.6 155.341 145.264C157.147 123.483 163.974 82.7792 189.509 57.0262C205.585 40.8123 226.996 32.805 253.084 33.2361C304.486 34.0782 337.448 60.4571 356.05 82.4388C372.079 101.381 380.759 120.462 384.224 130.752C358.173 128.104 340.455 133.247 331.473 146.087C311.933 174.018 342.163 228.231 356.692 254.286C359.356 259.061 361.656 263.188 362.379 264.941C367.11 276.407 373.235 284.062 377.707 289.65C379.078 291.363 380.408 293.023 381.419 294.473C373.529 296.749 359.357 302.003 360.648 328.274C359.606 341.456 352.198 403.172 348.436 424.977C343.469 453.783 332.868 464.514 303.062 470.904ZM432.047 323.296C423.979 327.042 410.477 329.851 397.651 330.454C383.484 331.118 376.273 328.867 374.576 327.483C373.779 311.113 379.874 309.402 386.322 307.591C387.336 307.305 388.324 307.029 389.278 306.695C389.872 307.178 390.521 307.657 391.232 308.126C402.619 315.642 422.929 316.453 451.6 310.535C451.705 310.512 451.81 310.492 451.915 310.471C448.048 314.087 441.43 318.94 432.047 323.296Z" fill="white"/>
</g>
</g>
<defs>
<clipPath id="clip0_308_1410">
<rect width="485" height="500" fill="white"/>
</clipPath>
<clipPath id="clip1_308_1410">
<rect width="484.848" height="500" fill="white"/>
</clipPath>
</defs>
</svg>
